PathFileType        4      (X/Y/Z)      C:\Users\pc\Desktop\IMUTRC\Sujet_03\Sujet_03_velo_60.trc         
DataRate	CameraRate	NumFrames	NumMarkers	Units	OrigDataRate	OrigDataStartFrame	OrigNumFrames
60.0	60.0	4	64	mm	60.0	349	929
Frame#	Time	pHipOrigin			pRightASI			pLeftASI			pRightCSI			pLeftCSI			pRightIschialTub			pLeftIschialTub			pSacrum			pL5SpinalProcess			pL3SpinalProcess			pT12SpinalProcess			pIJ			pT4SpinalProcess			pT8SpinalProcess			pPX			pC7SpinalProcess			pTopOfHead			pRightAuricularis			pLeftAuricularis			pBackOfHead			pRightAcromion			pLeftAcromion			pRightArmLatEpicondyle			pRightArmMedEpicondyle			pLeftArmLatEpicondyle			pLeftArmMedEpicondyle			pRightUlnarStyloid			pRightRadialStyloid			pRightOlecranon			pLeftUlnarStyloid			pLeftRadialStyloid			pLeftOlecranon			pRightTopOfHand			pRightPinky			pRightBallHand			pLeftTopOfHand			pLeftPinky			pLeftBallHand			pRightGreaterTrochanter			pRightKneeLatEpicondyle			pRightKneeMedEpicondyle			pRightPatella			pLeftGreaterTrochanter			pLeftKneeLatEpicondyle			pLeftKneeMedEpicondyle			pLeftPatella			pRightTibialTub			pRightLatMalleolus			pRightMedMalleolus			pLeftTibialTub			pLeftLatMalleolus			pLeftMedMalleolus			pRightHeelFoot			pRightFirstMetatarsal			pRightFifthMetatarsal			pRightPivotFoot			pRightHeelCenter			pRightToe			pLeftHeelFoot			pLeftFirstMetatarsal			pLeftFifthMetatarsal			pLeftPivotFoot			pLeftHeelCenter			pLeftToe			
		X1	Y1	Z1	X2	Y2	Z2	X3	Y3	Z3	X4	Y4	Z4	X5	Y5	Z5	X6	Y6	Z6	X7	Y7	Z7	X8	Y8	Z8	X9	Y9	Z9	X10	Y10	Z10	X11	Y11	Z11	X12	Y12	Z12	X13	Y13	Z13	X14	Y14	Z14	X15	Y15	Z15	X16	Y16	Z16	X17	Y17	Z17	X18	Y18	Z18	X19	Y19	Z19	X20	Y20	Z20	X21	Y21	Z21	X22	Y22	Z22	X23	Y23	Z23	X24	Y24	Z24	X25	Y25	Z25	X26	Y26	Z26	X27	Y27	Z27	X28	Y28	Z28	X29	Y29	Z29	X30	Y30	Z30	X31	Y31	Z31	X32	Y32	Z32	X33	Y33	Z33	X34	Y34	Z34	X35	Y35	Z35	X36	Y36	Z36	X37	Y37	Z37	X38	Y38	Z38	X39	Y39	Z39	X40	Y40	Z40	X41	Y41	Z41	X42	Y42	Z42	X43	Y43	Z43	X44	Y44	Z44	X45	Y45	Z45	X46	Y46	Z46	X47	Y47	Z47	X48	Y48	Z48	X49	Y49	Z49	X50	Y50	Z50	X51	Y51	Z51	X52	Y52	Z52	X53	Y53	Z53	X54	Y54	Z54	X55	Y55	Z55	X56	Y56	Z56	X57	Y57	Z57	X58	Y58	Z58	X59	Y59	Z59	X60	Y60	Z60	X61	Y61	Z61	X62	Y62	Z62	X63	Y63	Z63	X64	Y64	Z64	
349	5.8	0.0	1250.01021	7.654105012890054E-14	93.39624000000002	1337.12967	131.58002000000008	80.02901999999999	1333.00326	-142.56439999999992	61.489250000000006	1412.45109	107.98396000000008	50.44675999999999	1409.08023	-118.27090999999992	-64.22081	1205.66588	60.50124000000008	-69.74206	1203.98045	-52.597139999999925	-62.18667	1284.765	2.4990900000000824	-4.82383	1376.4177	-1.5110799999999154	59.97817	1477.6018	-6.509259999999913	120.77	1569.2545	-11.158729999999911	388.69575	1612.61081	-27.489999999999924	263.9737	1713.79492	-21.561919999999912	190.51206	1653.06121	-16.33126999999991	291.87053	1525.49135	-20.515789999999924	309.53851	1749.42149	-24.06100999999991	560.31934	1848.1065	-64.39516999999991	490.46105	1793.12651	23.30547000000008	463.61035	1790.51118	-118.56149999999991	446.11672	1839.09815	-42.658889999999914	319.99982	1714.08551	192.7205600000001	300.53017	1692.8723	-241.3656499999999	419.67285	1436.39587	154.07184000000007	400.78438	1435.00103	96.53464000000005	395.49561	1417.56551	-203.12374999999994	379.978	1416.69374	-144.54041999999995	510.39565	1198.34297	114.60945000000004	558.40144	1219.96301	125.76818000000004	383.87193	1430.75839	122.39732000000005	491.97212	1181.31428	-185.51387999999994	539.74544	1204.79411	-193.65045999999995	361.322	1411.23061	-172.08853999999994	651.73956	1066.298	221.66352000000003	574.0934	1093.78799	164.93997000000002	550.3811	1161.72838	124.08275000000005	663.65383	1084.89588	-293.96279	578.33604	1091.98632	-242.23742999999996	539.97791	1149.63976	-196.90508999999997	38.53249000000001	1231.06362	161.9759400000001	379.80364	1009.16763	93.51248000000002	374.16616	1013.5265	13.832180000000038	398.57588	1050.60603	51.60913000000004	11.79802999999999	1231.17985	-168.7176699999999	276.41104	914.95772	-187.60613999999998	283.61772	908.09976	-108.27454999999996	312.50255	942.3896	-145.52842999999996	419.96345	968.07793	43.53067000000003	250.25776	583.68293	86.07333000000003	240.9007	586.29826	19.93461000000002	302.04124	854.5146	-147.21386999999996	-9.880130000000005	574.15152	-97.29017999999998	5.753719999999999	576.3019	-32.313819999999964	185.10705	511.09307	35.33598000000001	347.72229	482.44071	-15.924439999999992	349.17525	462.15739	63.17468000000001	370.91153	467.27181	20.806380000000008	224.39508	502.72402	32.488180000000014	451.98667	448.03462	14.471479999999998	-83.63236	537.4207	-28.071179999999963	55.27058	436.12036	-9.124589999999976	29.291669999999996	418.51049	-84.56224999999998	60.03629	412.40806	-48.238259999999975	-52.88773	511.79049	-32.66252999999997	122.62979	357.83489	-57.01413999999998	
350	5.817	0.0	1250.01021	7.654105012890054E-14	93.68684000000002	1336.78096	131.58002000000008	79.85465999999998	1333.23574	-142.56439999999992	61.83796000000001	1412.21862	108.21643000000009	50.388639999999995	1409.25458	-118.03843999999991	-64.1627	1205.60776	60.559360000000076	-69.91642	1204.09669	-52.597139999999925	-62.18667	1284.82312	2.6734500000000825	-4.76571	1376.4177	-1.2785999999999154	60.03629	1477.54368	-6.276789999999913	120.82812	1569.19638	-11.10060999999991	388.69575	1612.78517	-28.013059999999925	263.91558	1713.85304	-21.85250999999991	190.51206	1653.06121	-16.447499999999913	291.92864	1525.60759	-20.806379999999926	309.4804	1749.47961	-24.525959999999912	560.20311	1848.33898	-65.03446999999991	490.28669	1793.35899	22.666170000000083	463.55223	1790.68554	-119.20080999999992	446.00048	1839.27251	-43.298199999999916	320.2323	1714.08551	192.37185000000008	300.29769	1692.93042	-241.6562399999999	419.73097	1436.33775	154.01372000000006	400.95873	1434.88479	96.41840000000006	395.37937	1417.68175	-203.06562999999994	379.6874	1416.80997	-144.54041999999995	510.27941	1198.11049	114.95816000000005	558.2852	1219.73053	126.17501000000004	383.98817	1430.70027	122.33920000000006	491.56529	1181.3724	-185.16516999999993	539.33861	1204.79411	-193.24362999999994	361.14764	1411.40496	-172.03041999999994	651.50709	1066.12364	222.24470000000002	573.86093	1093.61364	165.46304000000003	550.26486	1161.49591	124.48958000000005	663.30512	1084.77964	-293.43972	577.98733	1091.98632	-241.71435999999997	539.6292	1149.63976	-196.49825999999996	37.54448000000001	1228.91324	161.9178200000001	369.2261	993.01071	92.93130000000002	364.05356	998.24137	13.309110000000038	389.91624	1033.92606	51.43477000000004	12.146739999999989	1232.69093	-168.89201999999992	286.11681	924.66349	-190.97700999999998	293.43972	917.22434	-111.70352999999996	321.33655	952.73467	-148.55058999999997	411.01321	953.25774	43.41443000000003	249.96717	565.02693	85.02720000000001	241.13318	567.35167	18.77224000000002	310.1197	863.69731	-150.00354999999996	-8.543400000000005	591.41268	-97.92947999999996	7.090439999999998	593.73741	-32.95311999999996	185.74636	491.68153	34.23173000000001	348.71031	464.48213	-16.854329999999994	350.16327	444.25693	62.302910000000004	371.95766	449.5457	19.934610000000006	225.15062	483.66119	31.442050000000012	453.20716	431.00594	13.657819999999997	-82.99305	556.42541	-28.59424999999996	54.16633	453.03281	-8.427169999999975	28.129299999999997	435.19046	-83.69046999999998	58.58333	428.91368	-47.30835999999998	-52.65526	530.21402	-32.83688999999996	120.36317	373.23626	-55.44493999999999	
351	5.833	0.0	1250.01021	7.654105012890054E-14	94.15178000000002	1336.43225	131.52190000000007	79.56406999999999	1333.41009	-142.56439999999992	62.302910000000004	1411.92803	108.39079000000008	50.27239999999999	1409.42894	-117.86407999999992	-64.04646	1205.54965	60.617470000000075	-70.09077	1204.32916	-52.48089999999992	-62.12855	1284.88124	2.9059200000000827	-4.59135	1376.35958	-1.0461299999999154	60.21065	1477.54368	-6.160549999999913	120.94436	1569.19638	-11.042489999999912	388.69575	1612.95952	-28.710479999999926	263.91558	1713.91115	-22.259339999999913	190.57018	1653.06121	-16.621859999999913	292.04488	1525.66571	-21.213209999999926	309.36416	1749.59584	-25.107139999999912	560.08687	1848.57145	-65.73188999999992	490.17045	1793.59146	21.96875000000008	463.436	1790.80178	-119.89822999999991	445.82613	1839.44686	-44.11184999999991	320.52289	1714.08551	191.9069100000001	300.06522	1693.04665	-242.12118999999993	419.78909	1436.1634	154.01372000000006	401.07497	1434.71044	96.41840000000006	395.1469	1417.8561	-203.12374999999994	379.39681	1416.98433	-144.59853999999996	510.10506	1197.76178	115.36499000000005	558.11084	1219.38182	126.52372000000004	384.04628	1430.52591	122.28108000000006	491.10035	1181.43052	-184.87457999999995	538.93178	1204.79411	-192.89491999999996	360.85705	1411.57932	-172.14664999999994	651.2165	1065.77493	222.76777000000004	573.62845	1093.26493	165.92799000000002	550.03239	1161.1472	124.95453000000005	662.89829	1084.66341	-292.91666	577.52239	1091.9282	-241.30752999999999	539.10613	1149.63976	-196.14954999999998	36.49835000000001	1226.70474	161.8597000000001	357.42806	976.62133	92.17576000000003	352.83671	982.66564	12.495450000000039	380.09423	1016.89737	51.027940000000044	12.321099999999989	1234.14389	-169.00825999999992	295.76446	935.1248	-194.28975999999997	303.43608	927.10447	-115.01627999999995	330.11242	963.83529	-151.63085999999998	400.90062	937.91449	43.18196000000003	247.75867	546.42905	83.86483000000001	239.6221	548.46319	17.493630000000017	318.48875	873.69367	-152.61887999999996	-5.869960000000006	608.61572	-98.91748999999996	9.647649999999999	611.23105	-33.94113999999996	184.2934	472.73494	32.89501000000001	347.4317	446.29107	-17.958579999999994	348.88466	426.00776	61.14054000000001	370.67906	431.41277	18.830360000000002	223.69766	464.88896	30.105320000000013	451.98667	413.27983	12.669809999999996	-80.95891	575.19765	-29.582259999999962	54.6894	470.23585	-8.078459999999975	28.710479999999997	452.04479	-83.34175999999997	58.99016	445.70989	-46.78529999999998	-50.96982	548.57943	-33.53430999999996	120.01446	389.10258	-54.22444999999998	
352	5.85	0.0	1250.01021	7.654105012890054E-14	94.67485000000002	1336.08354	131.2894300000001	79.15723999999999	1333.58445	-142.73874999999992	62.88409000000001	1411.63744	108.44891000000008	50.03992999999999	1409.60329	-117.74784999999991	-63.93021999999999	1205.49153	60.791830000000076	-70.32325	1204.50352	-52.36465999999992	-62.07043	1284.93936	3.1965100000000826	-4.47512	1376.35958	-0.8717799999999155	60.32688	1477.48557	-6.044309999999913	121.00248	1569.13826	-11.158729999999911	388.75387	1613.13388	-29.582259999999927	263.79935	1713.96927	-22.78240999999991	190.57018	1653.06121	-16.91244999999991	292.16112	1525.78194	-21.736279999999926	309.30604	1749.71208	-25.80455999999991	559.91251	1848.74581	-66.66178999999991	489.9961	1793.82393	21.03886000000008	463.31976	1790.91801	-120.82811999999991	445.70989	1839.67934	-45.041749999999915	320.75536	1714.14363	191.32572000000008	299.71651	1693.27913	-242.70236999999992	419.73097	1435.93092	153.95560000000006	401.01685	1434.36173	96.30216000000006	394.8563	1418.03046	-203.23998999999995	378.98998	1417.2168	-144.77289999999994	509.87259	1197.41307	115.65558000000004	557.87837	1218.97499	126.81431000000005	383.98817	1430.29344	122.16484000000005	490.57728	1181.48864	-184.52586999999994	538.40871	1204.85223	-192.60432999999995	360.50834	1411.81179	-172.32100999999994	650.9259	1065.42622	223.17460000000003	573.33786	1092.91622	166.33482000000004	549.79992	1160.74037	125.24512000000004	662.43334	1084.60529	-292.39359	576.99932	1091.9282	-240.84257999999997	538.64119	1149.69788	-195.74271999999996	35.62657000000001	1224.84495	161.74346000000008	345.04885	960.92937	91.24586000000004	340.80621	967.49674	11.623680000000038	369.57481	1000.27551	50.33052000000004	12.321099999999989	1235.48061	-169.1826199999999	305.35399	946.10918	-197.25379999999998	313.49057	937.79825	-118.15467999999996	338.8883	975.63332	-154.47866999999997	390.0906	923.03618	43.00760000000003	243.86474	528.81918	82.76058000000002	236.42559	530.56273	16.331270000000018	327.09027	884.50369	-155.17608999999996	-1.8597900000000063	625.2957	-100.19608999999996	13.541579999999998	628.20162	-35.219739999999966	180.80629	454.95071	31.616400000000016	344.00272	428.56497	-19.120949999999997	345.39756	408.28165	59.978170000000006	367.25007	413.68666	17.667990000000003	220.21056	447.10473	28.884840000000015	448.55769	395.61184	11.565559999999998	-77.47181	593.21435	-30.80273999999996	57.01414	486.85771	-8.194689999999973	30.977099999999997	468.4923	-83.39987999999997	61.08242	462.04116	-46.727179999999976	-47.77331	566.24742	-34.46419999999996	121.46742	404.73643	-53.585149999999985	
